GIL12_slow4_RRA_states
nRows=5
nColumns=47

# SIMM Motion File Header:
name GIL12_slow4_RRA_states
datacolumns 47
datarows 5
otherdata 1
range 1.25082999999997300000 1.25282999999997280000
endheader
time	pelvis_tx	pelvis_ty	pelvis_tz	pelvis_tilt	pelvis_list	pelvis_rotation	hip_flexion_r	hip_adduction_r	hip_rotation_r	knee_angle_r	ankle_angle_r	subtalar_angle_r	mtp_angle_r	hip_flexion_l	hip_adduction_l	hip_rotation_l	knee_angle_l	ankle_angle_l	subtalar_angle_l	mtp_angle_l	lumbar_extension	lumbar_bending	lumbar_rotation	pelvis_tx_u	pelvis_ty_u	pelvis_tz_u	pelvis_tilt_u	pelvis_list_u	pelvis_rotation_u	hip_flexion_r_u	hip_adduction_r_u	hip_rotation_r_u	knee_angle_r_u	ankle_angle_r_u	subtalar_angle_r_u	mtp_angle_r_u	hip_flexion_l_u	hip_adduction_l_u	hip_rotation_l_u	knee_angle_l_u	ankle_angle_l_u	subtalar_angle_l_u	mtp_angle_l_u	lumbar_extension_u	lumbar_bending_u	lumbar_rotation_u
      1.25082999999997300000	     -0.92416271902166525000	      0.68950676183672521000	      0.26138718807521316000	      4.06855074141712870000	      1.42041447011777390000	     -2.09518469024898520000	     10.52819536643560700000	     -9.35991379196092590000	    -13.59898446738478000000	    -51.95318409095780500000	     10.48632695528824500000	     -0.00000000000086607936	      0.00000000000107750683	     -0.88162461886914856000	      6.62349079898901310000	     -4.79193737613375070000	     -6.22003054927666990000	      3.46796378691217240000	      0.00000000000006011575	      0.00000000000009189137	    -23.26584451695677200000	     -3.55013283002738600000	      0.88303605936293039000	      0.51286157361671936000	     -0.01066125722654562100	      0.04160637414104026400	     25.33954538912393800000	     -8.42816914204578540000	    -12.96604876157115900000	     88.36079289101448400000	     33.90072649251236900000	     49.84966247506105900000	     78.33473888364770200000	     33.27356941915771000000	     -0.00000000000144567423	      0.00000000000156793572	    -75.95465734468432100000	     -3.89731907227534700000	     27.97582036016100200000	     -3.18646641046539260000	     60.20737792900533200000	      0.00000000000049919968	      0.00000000000066542699	    -23.82017763151845500000	      1.50280577937321120000	     10.51969136159608100000
      1.25132999999997300000	     -0.92390628160499821000	      0.68950136513632054000	      0.26140802543498132000	      4.08125070929551190000	      1.41621378542681420000	     -2.10169116980317570000	     10.57229597376006900000	     -9.34292983358938930000	    -13.57402556008240600000	    -51.91381455111974900000	     10.50290456759316400000	     -0.00000000000086680244	      0.00000000000107829096	     -0.91963623262249239000	      6.62156376643023670000	     -4.77786921354873240000	     -6.22162529695161930000	      3.49805102033515290000	      0.00000000000006036920	      0.00000000000009222160	    -23.27779136856190300000	     -3.54939202084448890000	      0.88830071999702376000	      0.51288837739267235000	     -0.01092501395904762200	      0.04174178782458996800	     25.46033715538197800000	     -8.37474880039232870000	    -13.05934885345347500000	     88.04119422195098800000	     34.03493613192892300000	     49.98512614873924800000	     79.14353466270593200000	     33.03624776802769200000	     -0.00000000000144712419	      0.00000000000156907852	    -76.09171862292362200000	     -3.81094255603888850000	     28.29697724164551100000	     -3.19280659882911030000	     60.14178065723665200000	      0.00000000000049564170	      0.00000000000067177419	    -23.96728899137712100000	      1.46110121372646070000	     10.53801763951568500000
      1.25182999999997290000	     -0.92364983036175974000	      0.68949583734793418000	      0.26142892859275146000	      4.09401108534715070000	      1.41203954329691770000	     -2.10824351643869170000	     10.61623612673575300000	     -9.32587903025897090000	    -13.54900019159302200000	    -51.87404045179145100000	     10.51936257487701100000	     -0.00000000000086752623	      0.00000000000107907527	     -0.95771625411653727000	      6.61967972345204460000	     -4.76364026502756310000	     -6.22322363271774840000	      3.52810561865371630000	      0.00000000000006062487	      0.00000000000009256213	    -23.28981186115446900000	     -3.54867106337532650000	      0.89357314717770631000	      0.51291687624369020000	     -0.01118561950562825200	      0.04186957960471621200	     25.58116937826995100000	     -8.32239676691291310000	    -13.14951283368452400000	     87.71899245657205300000	     34.16809916415623100000	     50.11548747660047800000	     79.95295646544016700000	     32.79515734732054700000	     -0.00000000000144776758	      0.00000000000156740248	    -76.22827945185039800000	     -3.72536413800292850000	     28.61893686426168400000	     -3.20080781590354620000	     60.07648889690312200000	      0.00000000000053583640	      0.00000000000066142945	    -24.11473135182179200000	      1.42338947162980830000	     10.55076498657279100000
      1.25232999999997290000	     -0.92339336444684594000	      0.68949018003714824000	      0.26144989375091199000	      4.10683188230058340000	      1.40789121046849930000	     -2.11484015792645240000	     10.66001453971846900000	     -9.30876191240559160000	    -13.52391093344269500000	    -51.83386150141223000000	     10.53569910065973600000	     -0.00000000000086824987	      0.00000000000107985924	     -0.99586442566264599000	      6.61783826620222020000	     -4.74925014943582550000	     -6.22482638173518770000	      3.55812756407493770000	      0.00000000000006089169	      0.00000000000009289846	    -23.30190615122970100000	     -3.54796796916374020000	      0.89885055951991932000	      0.51294706653002953000	     -0.01144310290252961700	      0.04198978914986184500	     25.70202314502449800000	     -8.27111407261212510000	    -13.23652840826122900000	     87.39423215931219600000	     34.30019429508572400000	     50.24068358623245700000	     80.76293672106776000000	     32.55032155004266100000	     -0.00000000000144692371	      0.00000000000156845882	    -76.36432158516669200000	     -3.64060247746910410000	     28.94165953215699000000	     -3.21047079573058140000	     60.01152513294012200000	      0.00000000000053544941	      0.00000000000068229647	    -24.26248134494364800000	      1.38965118380774790000	     10.55795956395344800000
      1.25282999999997280000	     -0.92313688301414909000	      0.68948439476073464000	      0.26147091712505516000	      4.11971310924810560000	      1.40376825161362030000	     -2.12147951843669300000	     10.70362993960079500000	     -9.29157901821696260000	    -13.49876037866783600000	    -51.79327743289902500000	     10.55191227620036000000	     -0.00000000000086897337	      0.00000000000108064329	     -1.03408048663476530000	      6.61603898249527060000	     -4.73469848493559380000	     -6.22643438034388550000	      3.58811720793760450000	      0.00000000000006116435	      0.00000000000009323958	    -23.31407439037207000000	     -3.54728075397813700000	      0.90413018611303153000	      0.51297894329161586000	     -0.01169749191404946500	      0.04210245744773933500	     25.82288125300243900000	     -8.22089722529596580000	    -13.32038539643853900000	     87.06695654009594400000	     34.43119588343370900000	     50.36065553612852600000	     81.57340900512511400000	     32.30176470800118700000	     -0.00000000000144786110	      0.00000000000156801987	    -76.49982911793834700000	     -3.55667190353236280000	     29.26510511651585500000	     -3.22179472708721400000	     59.94694525974841100000	      0.00000000000056022365	      0.00000000000069149417	    -24.41051833262418900000	      1.35986236126026780000	     10.55963039759307900000
